<?xml version="1.0" encoding="utf-8"?>
<svg xmlns="http://www.w3.org/2000/svg" xmlns:xlink="http://www.w3.org/1999/xlink" style="margin: auto; background: none; display: block; shape-rendering: auto;" width="200px" height="200px" viewBox="0 0 100 100" preserveAspectRatio="xMidYMid">
<g transform="translate(50 50)">
<g>
<animateTransform attributeName="transform" type="rotate" values="0;45" keyTimes="0;1" dur="0.36101083032490977s" repeatCount="indefinite"></animateTransform><path d="M20.12461179749811 -6 L29.12461179749811 -6 L29.12461179749811 6 L20.12461179749811 6 A21 21 0 0 1 18.472890157876993 9.987608783638422 L18.472890157876993 9.987608783638422 L24.836851188555922 16.35156981431735 L16.351569814317354 24.83685118855592 L9.987608783638425 18.47289015787699 A21 21 0 0 1 5.999999999999998 20.12461179749811 L5.999999999999998 20.12461179749811 L5.999999999999998 29.12461179749811 L-5.9999999999999964 29.12461179749811 L-5.9999999999999964 20.12461179749811 A21 21 0 0 1 -9.987608783638422 18.47289015787699 L-9.987608783638422 18.47289015787699 L-16.35156981431735 24.83685118855592 L-24.83685118855592 16.351569814317354 L-18.47289015787699 9.987608783638425 A21 21 0 0 1 -20.12461179749811 6 L-20.12461179749811 6 L-29.12461179749811 6.000000000000001 L-29.12461179749811 -5.999999999999994 L-20.12461179749811 -5.999999999999995 A21 21 0 0 1 -18.472890157876993 -9.987608783638422 L-18.472890157876993 -9.987608783638422 L-24.836851188555922 -16.35156981431735 L-16.351569814317347 -24.836851188555922 L-9.98760878363842 -18.472890157876993 A21 21 0 0 1 -6.00000000000001 -20.124611797498105 L-6.00000000000001 -20.124611797498105 L-6.0000000000000115 -29.124611797498105 L6 -29.124611797498105 L6.000000000000002 -20.124611797498105 A21 21 0 0 1 9.987608783638413 -18.472890157876996 L9.987608783638413 -18.472890157876996 L16.351569814317337 -24.836851188555926 L24.83685118855592 -16.35156981431735 L18.472890157876993 -9.98760878363842 A21 21 0 0 1 20.124611797498105 -6.0000000000000115 M0 -8A8 8 0 1 0 0 8 A8 8 0 1 0 0 -8" fill="#2c2424"></path></g></g>
<!-- [ldio] generated by https://loading.io/ --></svg>